<svg version="1.0" xmlns="http://www.w3.org/2000/svg" width="1365.333" height="1365.333" viewBox="0 0 1024 1024">
  <path
    d="M346.1 65.2c-3.1 8.6-14.6 29.7-23.8 43.6-5.7 8.5-10.3 15.6-10.3 15.7 0 .1-1.6 2.9-3.6 6.1-7.4 12.3-15.3 30.9-19 45-5.2 19.6-5.5 40.7-.9 56.7 3.8 12.9 12.7 18.7 21.6 14.1 15.8-8.1 28.4-34.8 33.4-70.9 1.6-10.9 1.7-13.9 2-39.5.3-32 1.4-67.5 2.1-71.3.8-3.7-.1-3.4-1.5.5zM211 211.7c0 .6.7 3 1.6 5.4 2.2 6.2 12.1 44.6 14.4 56 5.7 27.8 20.3 45.4 42.5 50.8 4.4 1.1 10.3 2.1 13 2.3l5 .3.7-8c1.8-22.9-9.1-47.4-28.3-63.5-6.6-5.4-8.9-6.8-22.2-13-7.2-3.4-8.5-4.8-20.9-22.9-3.2-4.7-5.8-8-5.8-7.4zM382.6 224.2c-9.3 14.1-14.4 19.2-22.6 22.3-22.5 8.6-40.7 29.5-46.4 53.5-1.7 6.7-2.7 22.6-1.7 26 .9 3.3 4.7 3.7 14.8 1.5 14.7-3 26-10 33.6-20.7 7.4-10.5 10.2-17.5 14.1-35.3 2.5-11.4 6.1-25.3 9.4-36.5 4.3-14.4 5.5-19 5.1-19.4-.2-.2-3.1 3.6-6.3 8.6zM398.1 285c-.3 2.9-11.1 26.4-14.2 31-1.9 2.8-7 7.4-12.6 11.6-17.9 13-30.5 28.9-36.7 46.4-5.5 15.1-7.2 32-5 47.5 2.4 16.1 4.2 23.5 5.7 23.5 2.7 0 16-4.6 22.1-7.7 17.8-8.9 28.4-21 32.8-37.3 4.6-16.9 5.8-27.3 6.3-54 .2-13.5.9-32 1.5-41.1.7-9.1 1-17.6.7-19-.2-1.3-.5-1.7-.6-.9zM200.5 320.5c2.5 7.2 10.3 27.4 15.9 40.9 3.6 8.8 6.6 16.6 6.6 17.4 0 2.8 7 22.2 10.6 29.4 4.2 8.5 13.5 23 17.3 27.1 7.1 7.8 21.4 14.7 35.6 17.2 3.6.7 24.6.9 25 .2.7-.8-2.9-26.5-4.6-33.1-6.3-23.7-23.1-45.8-44-57.9-5.6-3.2-21.5-9.7-23.8-9.7-5.9 0-21.5-11.7-29.4-22-4.8-6.3-9.9-11.6-9.2-9.5zM411.5 418.7c-3.1 6-7.6 10.8-23.4 25.2-22.6 20.6-31.4 45.6-28.2 80.1 1.4 14.9 5.7 30.1 8.5 30 2.9-.1 19-7.1 26.5-11.5 9.8-5.9 14.9-11.3 19.6-20.9 9.2-18.9 12.5-50.6 7.6-73.6-.6-2.5-2.2-10.6-3.7-18-3.6-18.6-3.4-18.2-6.9-11.3zM239.7 477.2c5.8 18.2 10.4 30 16.1 41.2 11.2 21.9 31 41.1 48.1 46.5 6.8 2.2 36.2.7 41.3-2 2.3-1.3 2.3-2-.8-12-6.2-20.5-15.3-37.5-26.2-49.1-12.7-13.5-32.7-24-49.8-26.3-13.7-1.8-21.8-4.6-29.1-10.1-1.7-1.3-3.4-2.4-3.6-2.4-.3 0 1.5 6.4 4 14.2zM435.7 501.6c-.4.4-.7 2.2-.7 4 0 4.8-2.6 16.3-4.8 21.4-1.1 2.5-4.8 8.3-8.3 13-8.5 11.3-13.1 20.3-16.9 33-3.6 12-5 28.6-3.2 38.2 1.5 7.5 6.8 21.5 14.1 37l6 12.8 8.8-5.3c12.2-7.2 21.5-16.7 26-26.3 6.8-14.7 8-31.3 3.8-51.1-2.5-11.7-5-20-16.6-55.3-7.5-22.8-7.3-22.3-8.2-21.4zM267.7 577.1c1.1 1.9 5.3 9.2 9.3 16.4 18 32.3 22.7 39.9 31.5 50.7 13.1 16 25.3 26.6 38 33.1 10.8 5.4 14 6.2 25.5 6.1 12.3-.1 17.6-1.7 30.7-9.6l8.2-4.9-5.4-9.2c-14.3-24.4-32.9-42.5-55.5-53.9-11.7-5.9-14.1-6.9-22-9.2-11.1-3.1-18.7-4.5-28.3-5-11.5-.7-14.2-1.8-24.3-10.4-9.4-7.8-10.2-8.2-7.7-4.1zM484.7 605c1.4 8.4.9 26.2-.9 30.5-8.3 20.7-10.4 31.4-9.5 50 1.1 23.1 7.8 36.9 30.7 62.9 4.6 5.3 8.8 9.6 9.1 9.6 1.8 0 15.5-16.3 19-22.5 7.7-13.9 9-31.7 3.5-48-4.5-13.2-13.9-31.2-23.8-45.2-5.1-7.3-12.8-18.6-17.1-25-4.2-6.5-8.6-12.9-9.7-14.3l-2-2.5.7 4.5zM343.2 719.6c1.5 1.6 11.2 11.5 21.5 21.9 23.8 24.2 34.8 33 52.8 42.5 16.5 8.7 27.7 12 40.8 12 15.7 0 26.9-5.3 40.5-19.2l7.3-7.4-8.8-8.1c-26.7-24.6-48.4-34.8-82-38.5-12.3-1.3-29.6-.1-38.9 2.7-9.6 2.9-15.3 1.6-33.9-7.8-1.5-.7-1.4-.3.7 1.9zM547.5 763.6c-2.7 5.8-5.1 11.1-5.2 11.7-.2.7 1.6 2.1 4 3.1 2.3 1.1 10.3 4.8 17.7 8.4 7.4 3.5 17.1 8.1 21.5 10.2 4.4 2.1 13 6.1 19 9 15.8 7.5 14.2 7.2 27.7 5.4 6.6-.8 12.1-1.4 12.3-1.2 1.9 2.3 12.4 17.4 13.7 19.6 1.2 2.3 4 4.2 10.5 7.3 4.8 2.3 16 7.6 24.8 11.9 8.8 4.3 19.2 9.2 23 11 3.9 1.8 14.4 6.8 23.4 11.1 9 4.4 16.5 7.9 16.6 7.9.2 0 6.3 2.9 13.7 6.4 13.3 6.3 17.8 8.2 17.8 7.3 0-.5-2.5-2.4-15-11.7-10.1-7.4-16.5-12.5-16.8-13.3-.2-.4-1.9-1.8-3.7-3-8.5-5.8-37.8-33.3-52.5-49.3-9.7-10.7-22.9-27.3-33.6-42.4-5.2-7.4-9.9-13.6-10.3-13.8-.5-.2-7.2.6-15 1.8-8.2 1.1-19.4 2-26.4 2-20.2 0-45.4-3.6-57-8.1-2.6-1.1-4.9-1.9-5-1.9-.1 0-2.4 4.8-5.2 10.6zM537.8 784.2c-1.3 2.4-8.8 18.8-8.8 19.3 0 .2 4.4 3.7 9.8 7.8 13.4 10.3 17.9 14.4 29.5 27.7 9.6 10.8 13 14.6 31.7 34.6l7.5 8 16-1c33.2-2 74.7 1.8 117.5 11 18.3 3.9 18.3 3.9 33.4 7.8 7.6 2 14.3 3.5 14.8 3.4 1.1-.4-30.9-16.1-63.7-31.3-3.3-1.5-10-4.7-15-7-22-10.5-29.8-14.1-41.5-19.3l-12.5-5.5-9.5.3c-15.4.5-17 .4-18.6-1.7-.8-1-3.7-5.5-6.5-10.1l-5.1-8.3-36.6-18c-20.2-9.8-37.5-18.4-38.4-18.9-2.4-1.4-2.6-1.3-4 1.2z" />
  <style>
    @media (prefers-color-scheme: light) {
      :root {
        filter: none;
      }
    }

    @media (prefers-color-scheme: dark) {
      :root {
        filter: invert(100%);
      }
    }
  </style>
</svg>